<svg width="10" height="10" viewBox="0 0 10 10" fill="none" xmlns="http://www.w3.org/2000/svg">
<g clip-path="url(#clip0_85_390)">
<rect x="0.730469" y="0.257446" width="9.10781" height="9.10781" rx="4.5539" fill="white"/>
<path fill-rule="evenodd" clip-rule="evenodd" d="M10.6846 4.77912C10.6846 7.77919 8.25221 10.2116 5.25214 10.2116C2.25208 10.2116 -0.180298 7.77919 -0.180298 4.77912C-0.180298 1.77906 2.25208 -0.65332 5.25214 -0.65332C8.25221 -0.65332 10.6846 1.77906 10.6846 4.77912ZM5.44681 3.35718C4.9185 3.57674 3.86234 4.03171 2.27879 4.72163C2.02165 4.82394 1.88675 4.92399 1.87452 5.02177C1.8537 5.18746 2.06104 5.25265 2.34262 5.34093C2.3811 5.35315 2.42094 5.36537 2.46168 5.37895C2.73919 5.46904 3.11221 5.57452 3.30597 5.5786C3.48207 5.58222 3.67855 5.50979 3.89539 5.3613C5.37483 4.36218 6.13854 3.85742 6.18652 3.84655C6.22048 3.83886 6.26756 3.8289 6.29925 3.85742C6.33094 3.88549 6.32777 3.9389 6.3246 3.95339C6.30377 4.04076 5.49162 4.79632 5.07061 5.18746C4.93933 5.30924 4.84652 5.3957 4.82751 5.41562C4.78495 5.45954 4.74149 5.50164 4.69984 5.54193C4.4418 5.79001 4.24895 5.97652 4.71071 6.28074C4.93253 6.42696 5.10999 6.54783 5.287 6.66825C5.48031 6.79999 5.67316 6.93127 5.92305 7.09515C5.98643 7.1368 6.04709 7.17981 6.10639 7.22191C6.33139 7.38262 6.53375 7.52658 6.78364 7.50394C6.9285 7.49036 7.0788 7.3541 7.15486 6.94712C7.33458 5.98467 7.68859 3.90042 7.77053 3.04119C7.77552 2.96985 7.77248 2.89818 7.76148 2.82752C7.75489 2.77045 7.7271 2.71793 7.68361 2.68039C7.61888 2.62742 7.51838 2.6161 7.47311 2.61701C7.26894 2.62063 6.95567 2.72973 5.44681 3.35718Z" fill="#2DA5E1"/>
</g>
<defs>
<clipPath id="clip0_85_390">
<rect x="0.730469" y="0.257446" width="9.10781" height="9.10781" rx="4.5539" fill="white"/>
</clipPath>
</defs>
</svg>
